<svg width="20" height="20" fill="none" xmlns="http://www.w3.org/2000/svg"><path d="M18.337 18.747H1.663a.42.42 0 01-.42-.42c.01-.211.073-2.074 1.052-3.064.463-.463 1.41-.947 2.81-1.652 1.495-.748 2.327-1.19 2.716-1.558l.842-.8-.736-.895a7.232 7.232 0 01-1.337-7.4C7.169 1.82 8.306 1.253 10 1.253c1.684 0 2.842.568 3.41 1.705a7.232 7.232 0 01-1.336 7.4l-.737.905.842.79c.39.368 1.221.81 2.716 1.557 1.004.428 1.949.983 2.81 1.653.8.8 1.032 2.305 1.053 3.063a.42.42 0 01-.42.421zm-2.884-6.252c-.79-.4-2.095-1.053-2.41-1.348 1.326-1.631 2.105-3.473 2.105-5.084 0-1.095 0-2.452-.621-3.663C13.979 1.305 12.737 0 10 0S6.021 1.305 5.474 2.4c-.61 1.21-.61 2.568-.61 3.663 0 1.61.768 3.453 2.094 5.084-.316.295-1.62.948-2.41 1.348-1.558.779-2.537 1.295-3.137 1.884C.106 15.684.01 17.884 0 18.305A1.663 1.663 0 001.662 20h16.674A1.673 1.673 0 0020 18.316c0-.432-.105-2.632-1.41-3.937-.59-.59-1.58-1.105-3.137-1.895v.01z" fill="#000"/></svg>