<svg width="29" height="25" fill="none" xmlns="http://www.w3.org/2000/svg"><path d="M17 22.288L15.855 9.393a.551.551 0 00-.548-.503H12.95A3.954 3.954 0 009 5a3.954 3.954 0 00-3.951 3.89H2.693a.548.548 0 00-.548.503L1 22.288c0 .017-.004.033-.004.05C.996 23.805 2.34 25 3.998 25h10.004c1.656 0 3.002-1.194 3.002-2.663 0-.016 0-.032-.004-.049zM9 6.104a2.85 2.85 0 012.847 2.786H6.153A2.85 2.85 0 019 6.104zm5.002 17.792H3.998c-1.039 0-1.882-.687-1.898-1.534L3.196 9.998h1.849v1.677a.55.55 0 00.552.552.55.55 0 00.552-.552V9.998h5.698v1.677a.55.55 0 00.552.552.55.55 0 00.552-.552V9.998h1.848l1.1 12.364c-.016.847-.862 1.534-1.897 1.534z" fill="#000"/><circle cx="20" cy="9" r="8.75" fill="#009B77" stroke="#fff" stroke-width=".5"/><path d="M20.771 8.435c.675.11 1.192.363 1.551.759.36.389.54.873.54 1.452 0 .447-.118.862-.353 1.243-.235.374-.594.675-1.078.902-.477.227-1.063.341-1.76.341a6.27 6.27 0 01-1.606-.209 4.214 4.214 0 01-1.33-.616l.692-1.364c.294.22.63.392 1.012.517a4.09 4.09 0 001.188.176c.448 0 .8-.084 1.056-.253a.844.844 0 00.385-.737c0-.63-.48-.946-1.44-.946h-.815V8.523l1.584-1.793H17.12V5.3h5.39v1.155l-1.738 1.98z" fill="#fff"/></svg>