<svg width="18" height="20" viewBox="0 0 18 20" fill="none" xmlns="http://www.w3.org/2000/svg">
<path d="M17 17.2883L15.8548 4.39264C15.8303 4.10634 15.589 3.88957 15.3067 3.88957H12.9509C12.9182 1.73824 11.1595 0 9 0C6.84049 0 5.0818 1.73824 5.04908 3.88957H2.69325C2.40695 3.88957 2.16973 4.10634 2.1452 4.39264L1 17.2883C1 17.3047 0.995911 17.3211 0.995911 17.3374C0.995911 18.8057 2.34151 20 3.99796 20H14.002C15.6585 20 17.0041 18.8057 17.0041 17.3374C17.0041 17.3211 17.0041 17.3047 17 17.2883ZM9 1.10429C10.5501 1.10429 11.8139 2.34765 11.8466 3.88957H6.15337C6.18609 2.34765 7.4499 1.10429 9 1.10429ZM14.002 18.8957H3.99796C2.9591 18.8957 2.11657 18.2086 2.10021 17.362L3.19632 4.99795H5.04499V6.67485C5.04499 6.9816 5.29039 7.22699 5.59714 7.22699C5.90389 7.22699 6.14928 6.9816 6.14928 6.67485V4.99795H11.8466V6.67485C11.8466 6.9816 12.092 7.22699 12.3988 7.22699C12.7055 7.22699 12.9509 6.9816 12.9509 6.67485V4.99795H14.7996L15.8998 17.362C15.8834 18.2086 15.0368 18.8957 14.002 18.8957Z" fill="black"/>
</svg>
