<svg width="37" height="25" viewBox="0 0 37 25" fill="none" xmlns="http://www.w3.org/2000/svg"><g filter="url(#filter0_d)"><path d="M14.5 24.832c-.299 0-.587-.109-.812-.305a244.026 244.026 0 00-2.388-2.054l-.003-.003c-2.116-1.803-3.943-3.36-5.214-4.894C4.662 15.86 4 14.236 4 12.46c0-1.726.592-3.318 1.666-4.483a5.647 5.647 0 014.2-1.829c1.213 0 2.323.384 3.3 1.14.493.38.94.848 1.334 1.392a6.752 6.752 0 011.334-1.393 5.282 5.282 0 013.3-1.139c1.621 0 3.113.65 4.2 1.829C24.408 9.142 25 10.734 25 12.46c0 1.776-.662 3.401-2.083 5.116-1.27 1.534-3.098 3.09-5.213 4.893-.723.616-1.542 1.314-2.392 2.058a1.232 1.232 0 01-.812.305zM9.867 7.379A4.43 4.43 0 006.57 8.81c-.864.937-1.34 2.233-1.34 3.649 0 1.493.555 2.83 1.8 4.331 1.203 1.452 2.992 2.977 5.064 4.742l.004.004c.724.617 1.546 1.317 2.4 2.064.86-.749 1.682-1.45 2.408-2.068 2.072-1.766 3.861-3.29 5.064-4.742 1.245-1.502 1.8-2.838 1.8-4.331 0-1.416-.476-2.712-1.34-3.65a4.43 4.43 0 00-3.296-1.431 4.08 4.08 0 00-2.547.881c-.675.522-1.145 1.182-1.42 1.643a.77.77 0 01-.667.379.77.77 0 01-.667-.379c-.275-.461-.745-1.12-1.42-1.643a4.08 4.08 0 00-2.546-.881z" fill="#000"/><circle cx="28" cy="9" r="8.75" fill="#009B77" stroke="#fff" stroke-width=".5"/><path d="M29.245 5.3V13h-1.782V6.73h-1.54V5.3h3.322z" fill="#fff"/></g><defs><filter id="filter0_d" x="0" y="0" width="41" height="32.832" filterUnits="userSpaceOnUse" color-interpolation-filters="sRGB"><feFlood flood-opacity="0" result="BackgroundImageFix"/><feColorMatrix in="SourceAlpha" values="0 0 0 0 0 0 0 0 0 0 0 0 0 0 0 0 0 0 127 0"/><feOffset dy="4"/><feGaussianBlur stdDeviation="2"/><feColorMatrix values="0 0 0 0 0 0 0 0 0 0 0 0 0 0 0 0 0 0 0.25 0"/><feBlend in2="BackgroundImageFix" result="effect1_dropShadow"/><feBlend in="SourceGraphic" in2="effect1_dropShadow" result="shape"/></filter></defs></svg>