<svg width="21" height="19" viewBox="0 0 21 19" fill="none" xmlns="http://www.w3.org/2000/svg">
<path d="M10.5 18.8317C10.201 18.8317 9.91278 18.7234 9.68816 18.5266C8.83981 17.7848 8.0219 17.0877 7.30029 16.4728L7.2966 16.4696C5.18094 14.6667 3.35398 13.1097 2.08282 11.5759C0.661856 9.86129 0 8.23557 0 6.45956C0 4.73402 0.591681 3.1421 1.66594 1.97684C2.75301 0.797798 4.24463 0.148438 5.86651 0.148438C7.07871 0.148438 8.18885 0.531677 9.16601 1.28742C9.65916 1.6689 10.1062 2.13577 10.5 2.68035C10.894 2.13577 11.3408 1.6689 11.8341 1.28742C12.8113 0.531677 13.9214 0.148438 15.1336 0.148438C16.7553 0.148438 18.2471 0.797798 19.3342 1.97684C20.4084 3.1421 21 4.73402 21 6.45956C21 8.23557 20.3383 9.86129 18.9173 11.5758C17.6461 13.1097 15.8193 14.6665 13.704 16.4693C12.9811 17.0852 12.1619 17.7834 11.3116 18.527C11.0872 18.7234 10.7988 18.8317 10.5 18.8317ZM5.86651 1.37859C4.5923 1.37859 3.42175 1.88712 2.5702 2.81061C1.70599 3.74804 1.22999 5.04388 1.22999 6.45956C1.22999 7.95326 1.78514 9.28915 3.02986 10.791C4.23293 12.2428 6.0224 13.7677 8.09432 15.5335L8.09817 15.5367C8.82251 16.154 9.64362 16.8538 10.4982 17.6011C11.3579 16.8524 12.1803 16.1514 12.9061 15.5331C14.9779 13.7674 16.7672 12.2428 17.9703 10.791C19.2148 9.28915 19.77 7.95326 19.77 6.45956C19.77 5.04388 19.294 3.74804 18.4298 2.81061C17.5784 1.88712 16.4077 1.37859 15.1336 1.37859C14.2002 1.37859 13.3432 1.67531 12.5865 2.26042C11.9121 2.78209 11.4424 3.44154 11.167 3.90297C11.0253 4.14025 10.776 4.28188 10.5 4.28188C10.2239 4.28188 9.97463 4.14025 9.833 3.90297C9.55774 3.44154 9.08799 2.78209 8.41347 2.26042C7.65677 1.67531 6.79977 1.37859 5.86651 1.37859Z" fill="black"/>
</svg>
