<svg width="14" height="12" viewBox="0 0 14 12" fill="none" xmlns="http://www.w3.org/2000/svg">
<path d="M0.474737 0.911011H13.5253C13.7874 0.911011 14 1.12358 14 1.38575V10.6142C14 10.8763 13.7874 11.0889 13.5253 11.0889H0.474737C0.212605 11.0889 0 10.8763 0 10.6142V1.38575C0 1.12362 0.212605 0.911011 0.474737 0.911011ZM0.949474 10.1395H13.0505V1.86049H0.949474V10.1395Z" fill="#009B77"/>
<path d="M11.8066 4.09681L7.24908 6.90486C7.17275 6.95192 7.08642 6.97543 7.00006 6.97543C6.91369 6.97543 6.82737 6.95192 6.75103 6.90486L2.19355 4.09681C1.97035 3.95929 1.90085 3.66681 2.03837 3.44361C2.17589 3.22041 2.46844 3.15091 2.69157 3.28847L7.00006 5.94305L11.3085 3.28847C11.5316 3.15102 11.8241 3.22037 11.9617 3.44361C12.0993 3.66678 12.0298 3.95929 11.8066 4.09681Z" fill="#009B77"/>
</svg>
