<svg width="175" height="34" viewBox="0 0 175 34" fill="none" xmlns="http://www.w3.org/2000/svg">
  <g clip-path="url(#clip0)">
  <path d="M163.755 0.812988C161.819 0.812988 160.106 1.18255 158.468 1.84777C157.202 2.36516 155.638 3.32603 153.851 4.65647V1.25647H148.415V33.9999H153.851V15.3739C153.851 12.6391 154.745 10.3478 156.532 8.42603C158.319 6.57821 160.553 5.61734 163.234 5.61734C165.989 5.61734 168.223 6.57821 170.011 8.49994L174.628 5.9869C171.872 2.5869 168.223 0.886901 163.755 0.812988Z" fill="#009B77"/>
  <path d="M130.319 0.369507C125.777 0.369507 121.904 1.99559 118.553 5.24777C115.277 8.49994 113.638 12.4912 113.638 17.2217C113.638 21.9521 115.277 25.8695 118.553 29.1217C121.83 32.3739 125.702 33.9999 130.245 33.9999C134.787 33.9999 138.734 32.3739 142.085 29.1956C143.128 28.1608 144.021 27.126 144.691 25.9434L141.043 22.3956C140.447 23.5782 139.628 24.6869 138.66 25.6478C136.277 27.9391 133.521 29.0478 130.245 29.0478C127.043 29.0478 124.287 27.9391 121.904 25.6478C119.596 23.3565 118.404 20.5478 118.404 17.2217C118.404 13.8956 119.596 11.013 121.904 8.72168C124.213 6.35646 127.043 5.24777 130.319 5.24777C133.596 5.24777 136.351 6.43038 138.734 8.79559C140.521 10.4956 141.564 12.5652 142.011 14.7826C135.606 14.7826 129.202 14.7825 122.798 14.7086V18.9217C130.84 18.9217 138.957 18.9217 147 18.9956C147.447 13.9695 145.809 9.01733 142.085 5.39559C138.809 1.99559 134.862 0.369507 130.319 0.369507Z" fill="#009B77"/>
  <path d="M98.0745 0.739136C95.766 0.739136 93.4575 1.33044 91.2234 2.51305C88.9894 3.69566 87.1277 5.24783 85.7128 7.16957C84.4468 5.24783 82.8085 3.62174 80.7234 2.51305C78.6383 1.33044 76.4043 0.739136 73.9468 0.739136C72.0106 0.739136 70.2979 1.1087 68.6596 1.77392C67.3936 2.29131 65.8298 3.25218 64.0426 4.58261V1.18261H58.6064L58.5319 33.8522H63.9681V15.2261C63.9681 12.4913 64.8617 10.2 66.6489 8.27827C68.4362 6.43044 70.6702 5.46957 73.4255 5.46957C76.1809 5.46957 78.4149 6.43044 80.1277 8.27827C81.9149 10.1261 82.734 12.4913 82.734 15.1522V33.7783H87.9468L88.0213 15.0044C88.0213 12.3435 88.9149 10.0522 90.7766 8.20435C92.6383 6.35653 94.8723 5.46957 97.6277 5.46957C100.309 5.46957 102.543 6.43044 104.33 8.27827C106.117 10.1261 106.936 12.4913 106.936 15.1522V33.7783H112.223L112.298 14.9304C112.298 11.013 110.957 7.61305 108.202 4.80435C105.372 2.14348 102.021 0.739136 98.0745 0.739136Z" fill="#009B77"/>
  <path d="M48.8511 25.6478C46.4681 27.9391 43.7128 29.0478 40.4362 29.0478C37.234 29.0478 34.4787 27.9391 32.0957 25.6478C29.7872 23.3565 28.5957 20.5478 28.5957 17.2217C28.5957 13.8956 29.7872 11.013 32.0957 8.72168C34.4043 6.35646 37.234 5.24777 40.5106 5.24777C43.7872 5.24777 46.5426 6.43038 48.9255 8.79559C51.3085 11.1608 52.5 13.9695 52.4255 17.2956C52.4255 20.6217 51.234 23.4304 48.8511 25.6478ZM40.5106 0.369507C35.9681 0.369507 32.0957 1.99559 28.7447 5.24777C25.4681 8.49994 23.8298 12.4912 23.8298 17.2217C23.8298 21.9521 25.4681 25.8695 28.7447 29.1217C32.0213 32.3739 35.8936 33.9999 40.4362 33.9999C44.9787 33.9999 48.9255 32.3739 52.2766 29.1956C55.6277 25.9434 57.266 22.026 57.266 17.2956C57.266 12.5652 55.6277 8.57385 52.2766 5.32168C49 1.99559 45.0532 0.369507 40.5106 0.369507Z" fill="#009B77"/>
  <path d="M15.3404 0.517334C13.4043 0.517334 11.6915 0.886899 10.0532 1.55212C8.78723 2.06951 7.2234 3.03038 5.43617 4.36081V0.960812H0V33.7043H5.43617V15.0782C5.43617 12.3434 6.32979 10.0521 8.11702 8.13038C9.90425 6.28255 12.1383 5.32168 14.8191 5.32168C17.5745 5.32168 19.8085 6.28255 21.5957 8.20429L26.2128 5.69125C23.4574 2.29125 19.8085 0.591247 15.3404 0.517334Z" fill="#009B77"/>
  </g>
  <defs>
  <clipPath id="clip0">
  <rect width="175" height="34" fill="white"/>
  </clipPath>
  </defs>
</svg>
